<svg width="512" height="512" viewBox="0 0 512 512" fill="none" xmlns="http://www.w3.org/2000/svg">
<rect width="512" height="512" rx="128" fill="#F9F9F9"/>
<path fill-rule="evenodd" clip-rule="evenodd" d="M92.4341 241.354C169.421 228.571 250.637 227.994 328.777 227.514C328.777 227.514 369.626 226.072 373.855 229.148L375.296 230.781C373.855 233.184 374.72 232.319 372.797 233.569H372.99C264.958 272.014 202.484 276.435 92.4341 241.354Z" fill="#202020"/>
<path fill-rule="evenodd" clip-rule="evenodd" d="M92.4342 242.7C91.1847 320.263 101.469 371.972 185.857 401.287C289.083 437.041 376.258 349.962 374.335 245.006L374.047 230.781C412.012 286.72 372.605 368.416 327.336 407.727C248.426 476.159 132.994 441.078 90.4158 358.228C69.1747 316.803 72.7309 282.683 92.4342 242.7Z" fill="#202020"/>
<path fill-rule="evenodd" clip-rule="evenodd" d="M388.464 259.808C358.861 237.798 468.815 216.364 464.97 291.045C461.702 356.594 367.415 346.406 371.26 312.286C371.548 309.691 371.836 310.171 374.047 308.441C386.83 315.169 409.032 321.897 420.47 309.787C448.343 280.376 408.167 240.97 388.464 259.808Z" fill="#202020"/>
<path fill-rule="evenodd" clip-rule="evenodd" d="M172.689 245.295C212.384 201.563 140.299 187.723 139.914 118.425C139.818 99.1059 154.331 61.91 176.63 67.6768C176.341 71.6175 176.918 70.368 175.284 73.3475C154.62 110.928 169.037 121.981 189.124 155.717C210.846 192.336 215.075 262.691 172.689 245.295Z" fill="#202020"/>
<path fill-rule="evenodd" clip-rule="evenodd" d="M243.717 243.949C212.288 243.565 204.887 185.896 219.304 157.447C234.874 126.787 265.919 108.141 235.163 65.6584L230.549 58.4499C275.915 51.4336 289.467 128.228 255.058 167.154C225.359 200.698 237.662 210.405 243.717 243.949Z" fill="#202020"/>
<path fill-rule="evenodd" clip-rule="evenodd" d="M326.663 79.4987C312.823 112.658 294.849 120.924 326.951 153.602C368.28 195.7 318.589 228.955 281.874 247.89C286.487 210.598 322.53 197.334 307.056 184.166C255.827 140.531 294.08 71.9058 326.663 79.4987Z" fill="#202020"/>
</svg>
